<svg xmlns="http://www.w3.org/2000/svg" xmlns:xlink="http://www.w3.org/1999/xlink" viewBox="0 0 500 461.3"><defs><style>.cls-1{fill:#1b1a3d;}.cls-2{fill:#4e5bf7;opacity:0.3;}.cls-3{fill:url(#Degradado_sin_nombre_8);}.cls-4{fill:url(#Degradado_sin_nombre_7);}.cls-5{fill:url(#Degradado_sin_nombre_3);}.cls-6{fill:url(#Degradado_sin_nombre_6);}.cls-7{fill:url(#Degradado_sin_nombre_5);}.cls-8{fill:url(#Degradado_sin_nombre_2);}.cls-9{fill:url(#Degradado_sin_nombre_4);}.cls-10{fill:url(#Degradado_sin_nombre_8-2);}.cls-11{fill:url(#Degradado_sin_nombre_7-2);}.cls-12{fill:url(#Degradado_sin_nombre_3-2);}.cls-13{fill:url(#Degradado_sin_nombre_6-2);}.cls-14{fill:url(#Degradado_sin_nombre_5-2);}.cls-15{fill:url(#Degradado_sin_nombre_2-2);}.cls-16{fill:url(#Degradado_sin_nombre_4-2);}.cls-17{font-size:71.16px;fill:#fff;font-family:GillSansMT, Gill Sans MT;letter-spacing:0.05em;}.cls-18{letter-spacing:-0.01em;}.cls-19{letter-spacing:0.01em;}.cls-20{letter-spacing:0.03em;}.cls-21{letter-spacing:0.05em;}</style><linearGradient id="Degradado_sin_nombre_8" x1="-269.58" y1="96.69" x2="-210.19" y2="156.09" gradientTransform="translate(673.35)" gradientUnits="userSpaceOnUse"><stop offset="0" stop-color="#d09"/><stop offset="0.37" stop-color="#6f35f7"/><stop offset="0.5" stop-color="#8656f8" stop-opacity="0.92"/><stop offset="0.76" stop-color="#c3aafc" stop-opacity="0.71"/><stop offset="1" stop-color="#fff" stop-opacity="0.5"/></linearGradient><linearGradient id="Degradado_sin_nombre_7" x1="-335.96" y1="89.72" x2="-262.61" y2="163.07" gradientTransform="translate(673.35)" gradientUnits="userSpaceOnUse"><stop offset="0" stop-color="#ffe400"/><stop offset="0.52" stop-color="#ff9830"/><stop offset="0.59" stop-color="#ffa346" stop-opacity="0.95"/><stop offset="0.74" stop-color="#ffc081" stop-opacity="0.8"/><stop offset="0.94" stop-color="#ffefdf" stop-opacity="0.58"/><stop offset="1" stop-color="#fff" stop-opacity="0.5"/></linearGradient><linearGradient id="Degradado_sin_nombre_3" x1="-390.96" y1="96.64" x2="-331.47" y2="156.14" gradientTransform="translate(673.35)" gradientUnits="userSpaceOnUse"><stop offset="0" stop-color="#e3ffca"/><stop offset="0.53" stop-color="#c3f06e"/><stop offset="1" stop-color="#fff" stop-opacity="0.5"/></linearGradient><linearGradient id="Degradado_sin_nombre_6" x1="209.57" y1="82.43" x2="293.08" y2="165.94" gradientUnits="userSpaceOnUse"><stop offset="0" stop-color="#54e1fe"/><stop offset="0.09" stop-color="#72e8f0"/><stop offset="0.23" stop-color="#99f2dc"/><stop offset="0.36" stop-color="#b6f9ce"/><stop offset="0.47" stop-color="#c8fdc6"/><stop offset="0.55" stop-color="#ceffc3"/><stop offset="0.63" stop-color="#d5ffcc" stop-opacity="0.92"/><stop offset="0.8" stop-color="#e9ffe4" stop-opacity="0.73"/><stop offset="0.97" stop-color="#fff" stop-opacity="0.5"/></linearGradient><linearGradient id="Degradado_sin_nombre_5" x1="-11724.66" y1="96.64" x2="-11784.16" y2="156.14" gradientTransform="matrix(-1, 0, 0, 1, -11563.9, 0)" gradientUnits="userSpaceOnUse"><stop offset="0" stop-color="#355bff"/><stop offset="0.1" stop-color="#3e78ff"/><stop offset="0.24" stop-color="#499cff"/><stop offset="0.36" stop-color="#50b3ff"/><stop offset="0.43" stop-color="#52bbff"/><stop offset="0.53" stop-color="#6cc5ff" stop-opacity="0.92"/><stop offset="0.74" stop-color="#b1e0ff" stop-opacity="0.73"/><stop offset="0.95" stop-color="#fff" stop-opacity="0.5"/></linearGradient><linearGradient id="Degradado_sin_nombre_2" x1="-11603.38" y1="96.69" x2="-11662.78" y2="156.09" gradientTransform="matrix(-1, 0, 0, 1, -11563.9, 0)" gradientUnits="userSpaceOnUse"><stop offset="0" stop-color="#ffe400"/><stop offset="0.47" stop-color="#ff9830"/><stop offset="1" stop-color="#fff" stop-opacity="0.5"/></linearGradient><linearGradient id="Degradado_sin_nombre_4" x1="-11655.8" y1="89.72" x2="-11729.15" y2="163.07" gradientTransform="matrix(-1, 0, 0, 1, -11563.9, 0)" gradientUnits="userSpaceOnUse"><stop offset="0" stop-color="#d09"/><stop offset="0.25" stop-color="#a21ccc"/><stop offset="0.44" stop-color="#7d2eeb"/><stop offset="0.54" stop-color="#6f35f7"/><stop offset="0.61" stop-color="#763ef7" stop-opacity="0.98"/><stop offset="0.69" stop-color="#8859f8" stop-opacity="0.91"/><stop offset="0.78" stop-color="#a784fa" stop-opacity="0.8"/><stop offset="0.87" stop-color="#d2c0fd" stop-opacity="0.66"/><stop offset="0.95" stop-color="#fff" stop-opacity="0.5"/></linearGradient><linearGradient id="Degradado_sin_nombre_8-2" x1="-11780.03" y1="4667.95" x2="-11720.63" y2="4727.34" gradientTransform="translate(-11681.16 4824.03) rotate(180)" xlink:href="#Degradado_sin_nombre_8"/><linearGradient id="Degradado_sin_nombre_7-2" x1="-11846.4" y1="4660.97" x2="-11773.05" y2="4734.32" gradientTransform="translate(-11681.16 4824.03) rotate(180)" xlink:href="#Degradado_sin_nombre_7"/><linearGradient id="Degradado_sin_nombre_3-2" x1="-11901.41" y1="4667.89" x2="-11841.91" y2="4727.39" gradientTransform="translate(-11681.16 4824.03) rotate(180)" xlink:href="#Degradado_sin_nombre_3"/><linearGradient id="Degradado_sin_nombre_6-2" x1="-11300.88" y1="4653.68" x2="-11217.37" y2="4737.19" gradientTransform="translate(-11007.8 4824.03) rotate(180)" xlink:href="#Degradado_sin_nombre_6"/><linearGradient id="Degradado_sin_nombre_5-2" x1="-214.21" y1="4667.89" x2="-273.71" y2="4727.39" gradientTransform="matrix(1, 0, 0, -1, 556.1, 4824.03)" xlink:href="#Degradado_sin_nombre_5"/><linearGradient id="Degradado_sin_nombre_2-2" x1="-92.94" y1="4667.95" x2="-152.33" y2="4727.34" gradientTransform="matrix(1, 0, 0, -1, 556.1, 4824.03)" xlink:href="#Degradado_sin_nombre_2"/><linearGradient id="Degradado_sin_nombre_4-2" x1="-145.35" y1="4660.97" x2="-218.7" y2="4734.32" gradientTransform="matrix(1, 0, 0, -1, 556.1, 4824.03)" xlink:href="#Degradado_sin_nombre_4"/></defs><g id="Layer_2" data-name="Layer 2"><g id="BACKGROUND"><rect class="cls-1" y="126.39" width="500" height="334.91"/></g><g id="OBJECTS"><circle class="cls-2" cx="251.32" cy="126.39" r="126.39"/><path class="cls-3" d="M433.47,112.34c-15.7,0-12.89,14-59.4,14H492.86C446.35,126.39,449.16,112.34,433.47,112.34Z"/><path class="cls-4" d="M374.07,103.08c-19.38,0-15.91,23.31-73.35,23.31h146.7C390,126.39,393.45,103.08,374.07,103.08Z"/><path class="cls-5" d="M312.14,79.77c-22.74,0-12.91,46.62-59.5,46.62h119C325.05,126.39,334.88,79.77,312.14,79.77Z"/><path class="cls-6" d="M251.32,47.26c-31.08,0-17.64,79.13-81.3,79.13h162.6C269,126.39,282.4,47.26,251.32,47.26Z"/><path class="cls-7" d="M190.5,79.77c22.75,0,12.91,46.62,59.5,46.62H131C177.59,126.39,167.76,79.77,190.5,79.77Z"/><path class="cls-8" d="M69.18,112.34c15.69,0,12.88,14,59.39,14H9.78C56.29,126.39,53.48,112.34,69.18,112.34Z"/><path class="cls-9" d="M128.57,103.08c19.38,0,15.92,23.31,73.35,23.31H55.22C112.65,126.39,109.19,103.08,128.57,103.08Z"/><path class="cls-10" d="M69.18,140.44c15.69,0,12.88-14,59.39-14H9.78C56.29,126.39,53.48,140.44,69.18,140.44Z"/><path class="cls-11" d="M128.57,149.7c19.38,0,15.92-23.31,73.35-23.31H55.22C112.65,126.39,109.19,149.7,128.57,149.7Z"/><path class="cls-12" d="M190.5,173c22.75,0,12.91-46.62,59.5-46.62H131C177.59,126.39,167.76,173,190.5,173Z"/><path class="cls-13" d="M251.32,205.52c31.08,0,17.64-79.13,81.3-79.13H170C233.68,126.39,220.24,205.52,251.32,205.52Z"/><path class="cls-14" d="M312.14,173c-22.74,0-12.91-46.62-59.5-46.62h119C325.05,126.39,334.88,173,312.14,173Z"/><path class="cls-15" d="M433.47,140.44c-15.7,0-12.89-14-59.4-14H492.86C446.35,126.39,449.16,140.44,433.47,140.44Z"/><path class="cls-16" d="M374.07,149.7c-19.38,0-15.91-23.31-73.35-23.31h146.7C390,126.39,393.45,149.7,374.07,149.7Z"/><text class="cls-17" transform="translate(99.15 354.31)">Sine<tspan class="cls-18" x="132.09" y="0">W</tspan><tspan class="cls-19" x="205.53" y="0">a</tspan><tspan class="cls-20" x="236.95" y="0">v</tspan><tspan class="cls-21" x="270.25" y="0">e</tspan></text></g></g></svg>