<svg xmlns="http://www.w3.org/2000/svg" xmlns:xlink="http://www.w3.org/1999/xlink" viewBox="0 0 500 500"><defs><style>.cls-1{fill:#1b1a3d;}.cls-2{fill:#4e5bf7;opacity:0.3;}.cls-3{fill:url(#Degradado_sin_nombre_8);}.cls-4{fill:url(#Degradado_sin_nombre_7);}.cls-5{fill:url(#Degradado_sin_nombre_3);}.cls-6{fill:url(#Degradado_sin_nombre_6);}.cls-7{fill:url(#Degradado_sin_nombre_5);}.cls-8{fill:url(#Degradado_sin_nombre_2);}.cls-9{fill:url(#Degradado_sin_nombre_4);}.cls-10{fill:url(#Degradado_sin_nombre_8-2);}.cls-11{fill:url(#Degradado_sin_nombre_7-2);}.cls-12{fill:url(#Degradado_sin_nombre_3-2);}.cls-13{fill:url(#Degradado_sin_nombre_6-2);}.cls-14{fill:url(#Degradado_sin_nombre_5-2);}.cls-15{fill:url(#Degradado_sin_nombre_2-2);}.cls-16{fill:url(#Degradado_sin_nombre_4-2);}.cls-17{font-size:71.16px;fill:#fff;font-family:GillSansMT, Gill Sans MT;letter-spacing:0.05em;}.cls-18{letter-spacing:-0.01em;}.cls-19{letter-spacing:0.01em;}.cls-20{letter-spacing:0.03em;}.cls-21{letter-spacing:0.05em;}.cls-22{letter-spacing:0.03em;}</style><linearGradient id="Degradado_sin_nombre_8" x1="-270.91" y1="135.39" x2="-211.51" y2="194.78" gradientTransform="translate(673.35)" gradientUnits="userSpaceOnUse"><stop offset="0" stop-color="#d09"/><stop offset="0.37" stop-color="#6f35f7"/><stop offset="0.5" stop-color="#8656f8" stop-opacity="0.92"/><stop offset="0.76" stop-color="#c3aafc" stop-opacity="0.71"/><stop offset="1" stop-color="#fff" stop-opacity="0.5"/></linearGradient><linearGradient id="Degradado_sin_nombre_7" x1="-337.28" y1="128.41" x2="-263.93" y2="201.76" gradientTransform="translate(673.35)" gradientUnits="userSpaceOnUse"><stop offset="0" stop-color="#ffe400"/><stop offset="0.52" stop-color="#ff9830"/><stop offset="0.59" stop-color="#ffa346" stop-opacity="0.95"/><stop offset="0.74" stop-color="#ffc081" stop-opacity="0.8"/><stop offset="0.94" stop-color="#ffefdf" stop-opacity="0.58"/><stop offset="1" stop-color="#fff" stop-opacity="0.5"/></linearGradient><linearGradient id="Degradado_sin_nombre_3" x1="-392.28" y1="135.34" x2="-332.79" y2="194.84" gradientTransform="translate(673.35)" gradientUnits="userSpaceOnUse"><stop offset="0" stop-color="#e3ffca"/><stop offset="0.53" stop-color="#c3f06e"/><stop offset="1" stop-color="#fff" stop-opacity="0.5"/></linearGradient><linearGradient id="Degradado_sin_nombre_6" x1="208.25" y1="121.12" x2="291.76" y2="204.63" gradientUnits="userSpaceOnUse"><stop offset="0" stop-color="#54e1fe"/><stop offset="0.09" stop-color="#72e8f0"/><stop offset="0.23" stop-color="#99f2dc"/><stop offset="0.36" stop-color="#b6f9ce"/><stop offset="0.47" stop-color="#c8fdc6"/><stop offset="0.55" stop-color="#ceffc3"/><stop offset="0.63" stop-color="#d5ffcc" stop-opacity="0.92"/><stop offset="0.8" stop-color="#e9ffe4" stop-opacity="0.73"/><stop offset="0.97" stop-color="#fff" stop-opacity="0.5"/></linearGradient><linearGradient id="Degradado_sin_nombre_5" x1="-11725.98" y1="135.34" x2="-11785.48" y2="194.84" gradientTransform="matrix(-1, 0, 0, 1, -11566.55, 0)" gradientUnits="userSpaceOnUse"><stop offset="0" stop-color="#355bff"/><stop offset="0.1" stop-color="#3e78ff"/><stop offset="0.24" stop-color="#499cff"/><stop offset="0.36" stop-color="#50b3ff"/><stop offset="0.43" stop-color="#52bbff"/><stop offset="0.53" stop-color="#6cc5ff" stop-opacity="0.92"/><stop offset="0.74" stop-color="#b1e0ff" stop-opacity="0.73"/><stop offset="0.95" stop-color="#fff" stop-opacity="0.5"/></linearGradient><linearGradient id="Degradado_sin_nombre_2" x1="-11604.7" y1="135.39" x2="-11664.1" y2="194.78" gradientTransform="matrix(-1, 0, 0, 1, -11566.55, 0)" gradientUnits="userSpaceOnUse"><stop offset="0" stop-color="#ffe400"/><stop offset="0.47" stop-color="#ff9830"/><stop offset="1" stop-color="#fff" stop-opacity="0.5"/></linearGradient><linearGradient id="Degradado_sin_nombre_4" x1="-11657.12" y1="128.41" x2="-11730.47" y2="201.76" gradientTransform="matrix(-1, 0, 0, 1, -11566.55, 0)" gradientUnits="userSpaceOnUse"><stop offset="0" stop-color="#d09"/><stop offset="0.25" stop-color="#a21ccc"/><stop offset="0.44" stop-color="#7d2eeb"/><stop offset="0.54" stop-color="#6f35f7"/><stop offset="0.61" stop-color="#763ef7" stop-opacity="0.98"/><stop offset="0.69" stop-color="#8859f8" stop-opacity="0.91"/><stop offset="0.78" stop-color="#a784fa" stop-opacity="0.8"/><stop offset="0.87" stop-color="#d2c0fd" stop-opacity="0.66"/><stop offset="0.95" stop-color="#fff" stop-opacity="0.5"/></linearGradient><linearGradient id="Degradado_sin_nombre_8-2" x1="-11781.35" y1="4706.64" x2="-11721.96" y2="4766.04" gradientTransform="translate(-11683.8 4901.42) rotate(180)" xlink:href="#Degradado_sin_nombre_8"/><linearGradient id="Degradado_sin_nombre_7-2" x1="-11847.72" y1="4699.66" x2="-11774.37" y2="4773.01" gradientTransform="translate(-11683.8 4901.42) rotate(180)" xlink:href="#Degradado_sin_nombre_7"/><linearGradient id="Degradado_sin_nombre_3-2" x1="-11902.73" y1="4706.59" x2="-11843.23" y2="4766.09" gradientTransform="translate(-11683.8 4901.42) rotate(180)" xlink:href="#Degradado_sin_nombre_3"/><linearGradient id="Degradado_sin_nombre_6-2" x1="-11302.2" y1="4692.38" x2="-11218.69" y2="4775.89" gradientTransform="translate(-11010.44 4901.42) rotate(180)" xlink:href="#Degradado_sin_nombre_6"/><linearGradient id="Degradado_sin_nombre_5-2" x1="-215.53" y1="4706.59" x2="-275.03" y2="4766.09" gradientTransform="matrix(1, 0, 0, -1, 556.1, 4901.42)" xlink:href="#Degradado_sin_nombre_5"/><linearGradient id="Degradado_sin_nombre_2-2" x1="-94.26" y1="4706.64" x2="-153.65" y2="4766.04" gradientTransform="matrix(1, 0, 0, -1, 556.1, 4901.42)" xlink:href="#Degradado_sin_nombre_2"/><linearGradient id="Degradado_sin_nombre_4-2" x1="-146.67" y1="4699.66" x2="-220.02" y2="4773.01" gradientTransform="matrix(1, 0, 0, -1, 556.1, 4901.42)" xlink:href="#Degradado_sin_nombre_4"/></defs><g id="Layer_2" data-name="Layer 2"><g id="BACKGROUND"><rect class="cls-1" width="500" height="500"/></g><g id="OBJECTS"><circle class="cls-2" cx="250" cy="165.09" r="126.39"/><path class="cls-3" d="M432.15,151c-15.7,0-12.89,14.05-59.4,14.05H491.54C445,165.09,447.84,151,432.15,151Z"/><path class="cls-4" d="M372.75,141.78c-19.38,0-15.91,23.31-73.35,23.31H446.1C388.67,165.09,392.13,141.78,372.75,141.78Z"/><path class="cls-5" d="M310.82,118.46c-22.74,0-12.91,46.63-59.5,46.63h119C323.73,165.09,333.56,118.46,310.82,118.46Z"/><path class="cls-6" d="M250,86c-31.08,0-17.64,79.14-81.3,79.14H331.3C267.64,165.09,281.08,86,250,86Z"/><path class="cls-7" d="M189.18,118.46c22.74,0,12.91,46.63,59.5,46.63h-119C176.27,165.09,166.44,118.46,189.18,118.46Z"/><path class="cls-8" d="M67.85,151c15.7,0,12.89,14.05,59.4,14.05H8.46C55,165.09,52.16,151,67.85,151Z"/><path class="cls-9" d="M127.25,141.78c19.38,0,15.91,23.31,73.35,23.31H53.9C111.33,165.09,107.87,141.78,127.25,141.78Z"/><path class="cls-10" d="M67.85,179.13c15.7,0,12.89-14,59.4-14H8.46C55,165.09,52.16,179.13,67.85,179.13Z"/><path class="cls-11" d="M127.25,188.4c19.38,0,15.91-23.31,73.35-23.31H53.9C111.33,165.09,107.87,188.4,127.25,188.4Z"/><path class="cls-12" d="M189.18,211.71c22.74,0,12.91-46.62,59.5-46.62h-119C176.27,165.09,166.44,211.71,189.18,211.71Z"/><path class="cls-13" d="M250,244.22c31.08,0,17.64-79.13,81.3-79.13H168.7C232.36,165.09,218.92,244.22,250,244.22Z"/><path class="cls-14" d="M310.82,211.71c-22.74,0-12.91-46.62-59.5-46.62h119C323.73,165.09,333.56,211.71,310.82,211.71Z"/><path class="cls-15" d="M432.15,179.13c-15.7,0-12.89-14-59.4-14H491.54C445,165.09,447.84,179.13,432.15,179.13Z"/><path class="cls-16" d="M372.75,188.4c-19.38,0-15.91-23.31-73.35-23.31H446.1C388.67,165.09,392.13,188.4,372.75,188.4Z"/><text class="cls-17" transform="translate(97.83 393)">Sine<tspan class="cls-18" x="132.09" y="0">W</tspan><tspan class="cls-19" x="205.53" y="0">a</tspan><tspan class="cls-20" x="236.95" y="0">v</tspan><tspan class="cls-21" x="270.25" y="0">e</tspan><tspan x="-53.29" y="85.39">MusicP</tspan><tspan class="cls-22" x="169.62" y="85.39">r</tspan><tspan class="cls-21" x="199.59" y="85.39">oject</tspan></text></g></g></svg>